<?xml version="1.0" encoding="UTF-8"?>
<!DOCTYPE svg PUBLIC "-//W3C//DTD SVG 1.1//EN" "http://www.w3.org/Graphics/SVG/1.1/DTD/svg11.dtd">
<!-- Creator: CorelDRAW X7 -->
<svg xmlns="http://www.w3.org/2000/svg" xml:space="preserve" width="2.492in" height="2.377in" version="1.1" style="shape-rendering:geometricPrecision; text-rendering:geometricPrecision; image-rendering:optimizeQuality; fill-rule:evenodd; clip-rule:evenodd"
viewBox="0 0 2492 2377"
 xmlns:xlink="http://www.w3.org/1999/xlink">
 <defs>
  <style type="text/css">
   <![CDATA[
    .fil0 {fill:#E6E7E8;fill-rule:nonzero}
    .fil1 {fill:#F2F5F6;fill-rule:nonzero}
    .fil2 {fill:#0E2C38;fill-rule:nonzero}
    .fil3 {fill:#113140;fill-rule:nonzero}
   ]]>
  </style>
 </defs>
 <g id="Layer_x0020_1">
  <metadata id="CorelCorpID_0Corel-Layer"/>
  <g id="_764221616">
   <g>
    <path class="fil0" d="M1432 782l-363 0c-221,0 -400,179 -400,400l0 63c0,208 159,379 362,398l102 260 58 -252c26,-1 57,-3 91,-6l150 0c221,0 400,-179 400,-400l0 -63c0,-221 -179,-400 -400,-400z"/>
   </g>
   <g>
    <g>
     <path class="fil0" d="M1804 2227l-260 0 0 -53 260 0c94,0 204,-74 240,-160l8 -18c40,-98 66,-162 71,-177l1 -2c0,0 0,0 0,-1l1 1 52 0 0 6c0,6 0,11 -76,193l-7 18c-45,107 -175,193 -290,193z"/>
    </g>
   </g>
   <g>
    <path class="fil1" d="M1162 4c-497,0 -902,407 -902,907l0 153 132 0 0 -153c0,-428 345,-775 770,-775l79 0 0 -132 -79 0z"/>
   </g>
   <g>
    <path class="fil0" d="M1320 4l-79 0 0 132 79 0c425,0 770,347 770,775l0 153 132 0 0 -153c0,-500 -405,-907 -902,-907z"/>
   </g>
   <g>
    <path class="fil0" d="M2436 1080c-68,-85 -180,-93 -180,-93 -40,-10 -78,-9 -111,0l0 990c33,10 71,10 111,0 0,0 112,-7 180,-92 68,-85 68,-721 0,-805z"/>
   </g>
   <g>
    <path class="fil2" d="M2009 1181l0 602c0,100 55,172 136,194l0 -990c-81,23 -136,95 -136,194z"/>
   </g>
   <g>
    <path class="fil0" d="M226 987c0,0 -112,8 -180,93 -68,84 -68,720 0,805 68,85 180,92 180,92 40,10 78,10 111,0l0 -990c-33,-9 -71,-10 -111,0z"/>
   </g>
   <g>
    <path class="fil3" d="M337 987l0 990c80,-22 136,-94 136,-194l0 -602c0,-99 -56,-171 -136,-194z"/>
   </g>
   <g>
    <g>
     <path class="fil3" d="M1574 1109l-630 0c-15,0 -27,-12 -27,-27 0,-15 12,-27 27,-27l630 0c15,0 27,12 27,27 0,15 -12,27 -27,27z"/>
    </g>
   </g>
   <g>
    <g>
     <path class="fil3" d="M1574 1255l-630 0c-15,0 -27,-12 -27,-27 0,-15 12,-27 27,-27l630 0c15,0 27,12 27,27 0,15 -12,27 -27,27z"/>
    </g>
   </g>
   <g>
    <g>
     <path class="fil3" d="M1574 1401l-630 0c-15,0 -27,-12 -27,-27 0,-15 12,-27 27,-27l630 0c15,0 27,12 27,27 0,15 -12,27 -27,27z"/>
    </g>
   </g>
   <g>
    <path class="fil0" d="M1221 2381l93 0 94 0c106,0 193,-87 193,-194l-574 0c0,107 87,194 194,194z"/>
   </g>
   <g>
    <path class="fil3" d="M1408 1994l-94 0 -93 0c-107,0 -194,86 -194,193l574 0c0,-107 -87,-193 -193,-193z"/>
   </g>
  </g>
 </g>
</svg>
