<?xml version="1.0" encoding="UTF-8"?>
<!DOCTYPE svg PUBLIC "-//W3C//DTD SVG 1.1//EN" "http://www.w3.org/Graphics/SVG/1.1/DTD/svg11.dtd">
<!-- Creator: CorelDRAW X7 -->
<svg xmlns="http://www.w3.org/2000/svg" xml:space="preserve" width="0.867756in" height="1.20311in" version="1.1" style="shape-rendering:geometricPrecision; text-rendering:geometricPrecision; image-rendering:optimizeQuality; fill-rule:evenodd; clip-rule:evenodd"
viewBox="0 0 868 1203"
 xmlns:xlink="http://www.w3.org/1999/xlink">
 <defs>
  <style type="text/css">
   <![CDATA[
    .fil4 {fill:#267BAA;fill-rule:nonzero}
    .fil1 {fill:#4799CF;fill-rule:nonzero}
    .fil3 {fill:#D9D9D9;fill-rule:nonzero}
    .fil2 {fill:#E99D2C;fill-rule:nonzero}
    .fil0 {fill:#FBB540;fill-rule:nonzero}
   ]]>
  </style>
 </defs>
 <g id="Layer_x0020_1">
  <metadata id="CorelCorpID_0Corel-Layer"/>
  <g id="_788199344">
   <g>
    <path class="fil0" d="M577 194c-26,-31 -40,-69 -40,-109l0 -83 -206 0 0 83c-1,40 -15,78 -40,108 -28,34 -43,77 -43,121 1,98 82,181 181,184 102,3 188,-78 191,-180 1,-46 -14,-90 -43,-124l0 0z"/>
    <path class="fil0" d="M434 684c-12,0 -21,-9 -21,-20l0 -83c0,-12 9,-21 21,-21 11,0 21,9 21,21l0 83c0,11 -10,20 -21,20z"/>
    <path class="fil0" d="M668 567c-6,0 -11,-2 -15,-6l-44 -44c-8,-8 -8,-21 0,-29 8,-8 21,-8 29,0l44 43c8,9 8,22 0,30 -4,4 -9,6 -14,6l0 0z"/>
    <path class="fil0" d="M764 333l-62 0c-11,0 -20,-9 -20,-21 0,-11 9,-20 20,-20l62 0c12,0 21,9 21,20 0,12 -9,21 -21,21z"/>
    <path class="fil0" d="M624 143c-12,0 -21,-9 -21,-21 0,-5 2,-10 6,-14l44 -44c8,-8 21,-8 29,0 8,8 8,21 0,29l-44 44c-3,4 -9,6 -14,6z"/>
    <path class="fil0" d="M244 143c-6,0 -11,-2 -15,-6l-43 -44c-8,-8 -8,-21 0,-29 8,-8 21,-8 29,0l44 44c8,8 8,21 0,29 -4,4 -10,6 -15,6z"/>
    <path class="fil0" d="M165 333l-62 0c-11,0 -20,-9 -20,-21 0,-11 9,-20 20,-20l62 0c12,0 21,9 21,20 0,12 -9,21 -21,21z"/>
    <path class="fil0" d="M200 567c-11,0 -21,-10 -21,-21 0,-5 3,-11 7,-15l43 -43c8,-8 22,-8 30,0 8,8 8,21 0,29l-44 44c-4,4 -9,6 -15,6l0 0z"/>
   </g>
   <path class="fil1" d="M868 602l-428 61c-4,0 -8,0 -12,0l-428 -61 0 495 373 53c6,33 38,56 72,50 25,-5 45,-25 50,-50l373 -53 0 -495z"/>
   <path class="fil2" d="M496 374l-127 0c-33,0 -59,-26 -59,-59 0,-22 13,-42 33,-52l38 -20c7,-3 12,-10 12,-18l0 -140c0,-11 9,-21 20,-21 12,0 21,10 21,21l0 140c0,23 -13,45 -34,55l-39 20c-9,4 -12,14 -8,23 3,6 9,10 16,10l127 0c11,0 21,9 21,21 0,11 -10,20 -21,20z"/>
   <polygon class="fil3" points="331,2 537,2 537,85 331,85 "/>
   <path class="fil1" d="M868 602l-428 61c-4,0 -8,0 -12,0l-428 -61 0 495 373 53c6,33 38,56 72,50 25,-5 45,-25 50,-50l373 -53 0 -495z"/>
   <path class="fil4" d="M372 1150l1 0c6,33 38,56 72,50 25,-5 45,-25 50,-50l1 0 0 -495 -56 8c-4,0 -8,0 -12,0l-56 -8 0 495z"/>
  </g>
 </g>
</svg>
