<?xml version="1.0" encoding="UTF-8"?>
<!DOCTYPE svg PUBLIC "-//W3C//DTD SVG 1.1//EN" "http://www.w3.org/Graphics/SVG/1.1/DTD/svg11.dtd">
<!-- Creator: CorelDRAW X7 -->
<svg xmlns="http://www.w3.org/2000/svg" xml:space="preserve" width="0.131in" height="0.174in" version="1.1" style="shape-rendering:geometricPrecision; text-rendering:geometricPrecision; image-rendering:optimizeQuality; fill-rule:evenodd; clip-rule:evenodd"
viewBox="0 0 131 174"
 xmlns:xlink="http://www.w3.org/1999/xlink">
 <defs>
  <style type="text/css">
   <![CDATA[
    .str0 {stroke:#ED3237;stroke-width:6.94488}
    .fil2 {fill:none}
    .fil0 {fill:#3E4095}
    .fil1 {fill:#FEFEFE}
   ]]>
  </style>
    <clipPath id="id0">
     <path d="M297 15l169 0c14,0 24,11 24,24l0 93c0,13 -10,23 -24,23l-169 0c-13,0 -24,-10 -24,-23l0 -93c0,-13 11,-24 24,-24z"/>
    </clipPath>
 </defs>
 <g id="Layer_x0020_1">
  <metadata id="CorelCorpID_0Corel-Layer"/>
  <g id="_727669520">
   <path class="fil0" d="M297 15l169 0c14,0 24,11 24,24l0 93c0,13 -10,23 -24,23l-169 0c-13,0 -24,-10 -24,-23l0 -93c0,-13 11,-24 24,-24z"/>
   <g>
   </g>
   <g style="clip-path:url(#id0)">
    <g id="_726445872">
     <path class="fil1" d="M382 115l70 -55 37 -29c-3,-9 -12,-16 -23,-16l-169 0c-10,0 -19,7 -23,16l37 29 71 55z"/>
     <polygon class="fil2 str0" points="381,118 453,58 526,-2 381,-2 235,-2 308,58 "/>
    </g>
   </g>
   <path class="fil2" d="M297 15l169 0c14,0 24,11 24,24l0 93c0,13 -10,23 -24,23l-169 0c-13,0 -24,-10 -24,-23l0 -93c0,-13 11,-24 24,-24z"/>
  </g>
  <g>
   <g id="_818645072">
    <path class="fil0" d="M107 167c-7,-14 -16,-28 -24,-42 -17,5 -27,-4 -37,-20 -7,-13 -17,-38 -2,-47l-25 -42c-52,18 15,127 49,150 12,8 27,12 39,1z"/>
    <path class="fil0" d="M24 9c-1,7 8,20 11,26 3,4 4,7 7,11 7,13 7,14 19,6 11,-6 11,-4 -5,-30 -10,-17 -11,-33 -32,-13l0 0z"/>
    <path class="fil0" d="M112 165c4,1 15,-5 18,-7 4,-5 -3,-13 -5,-18 -4,-5 -6,-11 -9,-16 -3,-4 -7,-14 -11,-16 -4,0 -14,6 -17,8 -6,5 1,12 4,17 4,6 6,10 9,16 3,5 7,14 11,16l0 0z"/>
   </g>
  </g>
 </g>
</svg>
