<?xml version="1.0" encoding="UTF-8"?>
<!DOCTYPE svg PUBLIC "-//W3C//DTD SVG 1.1//EN" "http://www.w3.org/Graphics/SVG/1.1/DTD/svg11.dtd">
<!-- Creator: CorelDRAW X7 -->
<svg xmlns="http://www.w3.org/2000/svg" xml:space="preserve" width="0.666811in" height="1.20311in" version="1.1" style="shape-rendering:geometricPrecision; text-rendering:geometricPrecision; image-rendering:optimizeQuality; fill-rule:evenodd; clip-rule:evenodd"
viewBox="0 0 667 1203"
 xmlns:xlink="http://www.w3.org/1999/xlink">
 <defs>
  <style type="text/css">
   <![CDATA[
    .fil5 {fill:black;fill-rule:nonzero}
    .fil3 {fill:#34B5E1;fill-rule:nonzero}
    .fil1 {fill:#58C1E7;fill-rule:nonzero}
    .fil2 {fill:#8FD3F0;fill-rule:nonzero}
    .fil0 {fill:#C0E8F9;fill-rule:nonzero}
    .fil4 {fill:white;fill-rule:nonzero}
   ]]>
  </style>
 </defs>
 <g id="Layer_x0020_1">
  <metadata id="CorelCorpID_0Corel-Layer"/>
  <g id="_784042128">
   <g>
    <g>
     <path class="fil0" d="M79 693c13,-12 19,-29 19,-45 0,-17 -6,-33 -19,-46 -12,-12 -19,-29 -19,-46l0 -109c0,-151 140,-194 140,-280l267 0c0,86 140,129 140,280l0 109c0,9 -2,17 -5,25 -4,8 -8,15 -14,21 -26,25 -26,66 0,91 18,19 33,41 43,64l-298 67 -298 -67c11,-23 26,-45 44,-64z"/>
     <path class="fil0" d="M649 1045l0 13c0,34 -13,66 -37,89 -23,24 -55,37 -89,37l-380 0c-33,0 -65,-13 -89,-37 -23,-23 -36,-55 -36,-89l0 -13 315 -42 316 42z"/>
     <path class="fil1" d="M438 19l-209 0c-41,0 -75,33 -75,75l0 39c0,32 26,58 58,58l243 0c32,0 58,-26 58,-58l0 -39c0,-42 -34,-75 -75,-75z"/>
     <path class="fil2" d="M35 757l67 15c20,-169 73,-401 157,-605l-59 0c0,86 -140,129 -140,280l0 109c0,17 7,34 19,46 13,13 19,29 19,46 0,16 -6,33 -19,45 -18,19 -33,41 -44,64l0 0z"/>
     <path class="fil2" d="M107 1033l-89 12 0 13c0,34 13,66 36,89 24,24 56,37 89,37l34 0c-32,-45 -56,-96 -70,-151z"/>
     <path class="fil1" d="M649 842l0 203 -631 0 0 -203c0,-28 5,-55 16,-80 0,-2 1,-3 1,-5l596 0c12,27 18,56 18,85z"/>
     <path class="fil1" d="M341 348c-4,-5 -11,-5 -15,0 -154,149 -112,282 7,282 120,0 162,-133 8,-282z"/>
     <path class="fil3" d="M92 913c0,-42 4,-95 12,-156l-69 0c0,2 -1,3 -1,5 -11,25 -16,52 -16,80l0 203 92 0c-12,-42 -18,-86 -18,-132z"/>
     <path class="fil3" d="M212 191l37 0c24,-61 50,-119 79,-172l-99 0c-41,0 -75,33 -75,75l0 39c0,32 26,58 58,58z"/>
     <g>
      <g>
       <g>
        <g>
         <path class="fil4" d="M136 871c40,0 73,25 73,58 0,32 -33,58 -73,58 -40,0 -73,-26 -73,-58 0,-33 33,-58 73,-58z"/>
        </g>
        <g>
         <path class="fil4" d="M531 871c40,0 73,25 73,58 0,32 -33,58 -73,58 -40,0 -73,-26 -73,-58 0,-33 33,-58 73,-58z"/>
        </g>
       </g>
      </g>
     </g>
    </g>
    <g>
     <path class="fil5" d="M178 825c-9,0 -17,8 -17,18l0 30c0,9 8,17 17,17 10,0 18,-8 18,-17l0 -30c0,-10 -8,-18 -18,-18z"/>
     <path class="fil5" d="M488 890c10,0 18,-8 18,-17l0 -30c0,-10 -8,-18 -18,-18 -9,0 -17,8 -17,18l0 30c0,9 8,17 17,17z"/>
     <path class="fil5" d="M386 859c-7,-7 -19,-6 -25,1 -15,17 -41,17 -55,0 -7,-7 -18,-8 -25,-1 -7,6 -8,17 -2,24 29,33 80,33 109,0 6,-7 5,-18 -2,-24z"/>
     <path class="fil5" d="M333 648c130,0 192,-146 20,-313 -11,-11 -28,-11 -40,0 -24,24 -45,49 -62,74 -5,8 -3,19 5,24 8,6 19,3 24,-5 15,-21 32,-42 53,-63 58,57 109,138 84,200 -13,30 -43,48 -84,48 -69,0 -106,-51 -82,-126 3,-9 -2,-19 -11,-22 -9,-3 -19,2 -22,11 -32,99 23,172 115,172z"/>
     <path class="fil5" d="M19 750c-12,29 -19,60 -19,92l0 216c0,80 64,144 143,144l380 0c80,0 144,-64 144,-144 0,-31 0,-196 0,-216 0,-60 -24,-118 -67,-161 -18,-18 -18,-48 0,-67 15,-15 24,-36 24,-58l0 -109c0,-93 -49,-148 -89,-193 -18,-20 -33,-38 -42,-56 22,-13 37,-37 37,-65l0 -39c0,-51 -41,-93 -92,-93l-209 0c-51,0 -92,42 -92,93l0 39c0,28 15,52 37,65 -9,18 -25,36 -43,56 -39,45 -88,100 -88,193l0 109c0,22 8,43 24,58 18,19 18,49 0,67 -22,22 -40,49 -48,69zm504 417l0 0 -380 0c-58,0 -106,-46 -108,-104l375 0c9,0 17,-8 17,-18 0,-10 -8,-17 -17,-17l-375 0 0 -186c0,-23 4,-46 12,-67l573 0c8,21 12,44 12,67l0 186 -152 0c-10,0 -18,7 -18,17 0,10 8,18 18,18l152 0c-3,58 -50,104 -109,104zm-351 -1073l0 0c0,-32 25,-58 57,-58l209 0c31,0 57,26 57,58l0 39c0,22 -18,40 -40,40l-243 0c-22,0 -40,-18 -40,-40l0 -39zm-80 495l0 0c-9,-8 -14,-20 -14,-33l0 -109c0,-79 42,-127 80,-169 20,-23 40,-45 51,-70 2,0 247,0 249,0 11,25 31,47 51,70 38,42 80,90 80,169l0 109c0,13 -5,25 -14,33 -32,33 -32,85 0,117 11,10 20,21 27,34l-537 0c7,-13 16,-24 27,-34 31,-32 32,-84 0,-117z"/>
    </g>
   </g>
  </g>
 </g>
</svg>
