<?xml version="1.0" encoding="UTF-8"?>
<!DOCTYPE svg PUBLIC "-//W3C//DTD SVG 1.1//EN" "http://www.w3.org/Graphics/SVG/1.1/DTD/svg11.dtd">
<!-- Creator: CorelDRAW X7 -->
<svg xmlns="http://www.w3.org/2000/svg" xml:space="preserve" width="0.948071in" height="1.20311in" version="1.1" style="shape-rendering:geometricPrecision; text-rendering:geometricPrecision; image-rendering:optimizeQuality; fill-rule:evenodd; clip-rule:evenodd"
viewBox="0 0 948 1203"
 xmlns:xlink="http://www.w3.org/1999/xlink">
 <defs>
  <style type="text/css">
   <![CDATA[
    .fil0 {fill:#383E4F}
    .fil2 {fill:#D61E5E}
    .fil1 {fill:#FFD48A}
    .fil3 {fill:white}
   ]]>
  </style>
 </defs>
 <g id="Layer_x0020_1">
  <metadata id="CorelCorpID_0Corel-Layer"/>
  <g id="_867281632">
   <path class="fil0" d="M244 1198l42 0c6,-5 2,-2 12,-9 16,-10 24,-12 33,-34 17,-41 3,-440 6,-536 2,-32 -4,-22 12,-32 24,6 15,-6 17,26 7,77 -10,494 5,539 10,29 26,29 47,46l42 0c67,-51 53,-45 53,-179 0,-168 -16,-501 33,-624 14,4 12,4 25,14 11,7 14,10 25,17 16,9 31,18 50,28 33,19 70,34 108,46 212,65 214,-36 173,-65 -16,-12 -103,-14 -133,-22 -69,-19 -150,-64 -203,-107 -30,-25 -48,-55 -99,-55 -24,30 -21,44 -52,66 -24,18 -54,30 -91,30 -96,-2 -122,-78 -137,-95 -128,-4 -346,160 -100,247 43,15 206,77 188,-21 -7,-40 -54,-40 -93,-50 -37,-9 -72,-21 -101,-36 13,-15 26,-16 44,-26 24,52 1,36 71,53 36,9 67,12 83,37 19,30 5,68 -19,82 -32,18 -61,-1 -95,-1 6,154 1,371 1,535 0,84 -1,86 53,126z"/>
   <path class="fil1" d="M478 157c-128,41 -119,51 -252,0 -28,93 35,176 123,177 93,2 156,-80 129,-177z"/>
   <path class="fil2" d="M237 148c73,36 157,39 230,-1l0 -100c-111,14 -115,20 -230,0l0 101z"/>
   <path class="fil3" d="M286 1198l132 0c-21,-17 -37,-17 -47,-46 -15,-45 2,-462 -5,-539 -2,-32 7,-20 -17,-26 -16,10 -10,0 -12,32 -3,96 11,495 -6,536 -9,22 -17,24 -33,34 -10,7 -6,4 -12,9z"/>
   <path class="fil2" d="M404 5l-117 0c-23,12 -33,5 -50,24 30,31 204,34 230,0 -21,-23 -35,-12 -63,-24z"/>
   <path class="fil3" d="M368 495l3 -33c-55,-13 -56,46 -3,33z"/>
   <path class="fil3" d="M369 413l1 -33c-54,-13 -54,46 -1,33z"/>
  </g>
 </g>
</svg>
