<?xml version="1.0" encoding="UTF-8"?>
<!DOCTYPE svg PUBLIC "-//W3C//DTD SVG 1.1//EN" "http://www.w3.org/Graphics/SVG/1.1/DTD/svg11.dtd">
<!-- Creator: CorelDRAW X7 -->
<svg xmlns="http://www.w3.org/2000/svg" xml:space="preserve" width="0.339874in" height="0.220354in" version="1.1" style="shape-rendering:geometricPrecision; text-rendering:geometricPrecision; image-rendering:optimizeQuality; fill-rule:evenodd; clip-rule:evenodd"
viewBox="0 0 340 220"
 xmlns:xlink="http://www.w3.org/1999/xlink">
 <defs>
  <style type="text/css">
   <![CDATA[
    .str0 {stroke:#ED3237;stroke-width:13.8858}
    .fil2 {fill:none}
    .fil1 {fill:#FEFEFE}
    .fil0 {fill:#3E4095}
   ]]>
  </style>
   <clipPath id="id0">
    <path d="M38 0l264 0c21,0 38,17 38,38l0 145c0,20 -17,37 -38,37l-264 0c-21,0 -38,-17 -38,-37l0 -145c0,-21 17,-38 38,-38z"/>
   </clipPath>
 </defs>
 <g id="Layer_x0020_1">
  <metadata id="CorelCorpID_0Corel-Layer"/>
  <path class="fil0" d="M38 0l264 0c21,0 38,17 38,38l0 145c0,20 -17,37 -38,37l-264 0c-21,0 -38,-17 -38,-37l0 -145c0,-21 17,-38 38,-38z"/>
  <g style="clip-path:url(#id0)">
   <g id="_796111104">
    <polygon id="1" class="fil1 str0" points="170,156 280,70 391,-16 170,-16 -51,-16 60,70 "/>
   </g>
  </g>
  <path class="fil2" d="M38 0l264 0c21,0 38,17 38,38l0 145c0,20 -17,37 -38,37l-264 0c-21,0 -38,-17 -38,-37l0 -145c0,-21 17,-38 38,-38z"/>
 </g>
</svg>
