<?xml version="1.0" encoding="UTF-8"?>
<!DOCTYPE svg PUBLIC "-//W3C//DTD SVG 1.1//EN" "http://www.w3.org/Graphics/SVG/1.1/DTD/svg11.dtd">
<!-- Creator: CorelDRAW X7 -->
<svg xmlns="http://www.w3.org/2000/svg" xml:space="preserve" width="0.156575in" height="0.207638in" version="1.1" style="shape-rendering:geometricPrecision; text-rendering:geometricPrecision; image-rendering:optimizeQuality; fill-rule:evenodd; clip-rule:evenodd"
viewBox="0 0 157 208"
 xmlns:xlink="http://www.w3.org/1999/xlink">
 <defs>
  <style type="text/css">
   <![CDATA[
    .fil0 {fill:#3E4095}
   ]]>
  </style>
 </defs>
 <g id="Layer_x0020_1">
  <metadata id="CorelCorpID_0Corel-Layer"/>
  <g id="_818645072">
   <path class="fil0" d="M128 199c-9,-16 -20,-33 -29,-50 -20,6 -32,-5 -44,-24 -9,-15 -20,-45 -3,-56l-29 -50c-63,21 17,152 58,179 15,10 32,15 47,1z"/>
   <path class="fil0" d="M28 11c-1,8 10,23 14,30 3,5 5,9 8,14 8,15 8,16 23,7 13,-7 13,-5 -6,-36 -12,-20 -13,-39 -39,-15z"/>
   <path class="fil0" d="M134 197c5,1 18,-6 21,-9 5,-6 -3,-15 -6,-21 -4,-6 -7,-13 -11,-19 -3,-5 -8,-17 -13,-19 -4,0 -17,7 -20,9 -7,6 1,15 5,21 4,7 7,12 11,19 3,6 8,16 13,19z"/>
  </g>
 </g>
</svg>
