<?xml version="1.0" encoding="UTF-8"?>
<!DOCTYPE svg PUBLIC "-//W3C//DTD SVG 1.1//EN" "http://www.w3.org/Graphics/SVG/1.1/DTD/svg11.dtd">
<!-- Creator: CorelDRAW X7 -->
<svg xmlns="http://www.w3.org/2000/svg" xml:space="preserve" width="0.0533307in" height="0.0299921in" version="1.1" style="shape-rendering:geometricPrecision; text-rendering:geometricPrecision; image-rendering:optimizeQuality; fill-rule:evenodd; clip-rule:evenodd"
viewBox="0 0 53 30"
 xmlns:xlink="http://www.w3.org/1999/xlink">
 <defs>
  <style type="text/css">
   <![CDATA[
    .fil2 {fill:#178AC5}
    .fil0 {fill:#303191}
    .fil1 {fill:#E42224}
   ]]>
  </style>
 </defs>
 <g id="Layer_x0020_1">
  <metadata id="CorelCorpID_0Corel-Layer"/>
  <g id="_787676704">
   <path class="fil0" d="M23 16c1,0 1,0 1,1 0,0 1,1 1,2 1,1 1,1 1,2 0,0 0,0 0,1 1,0 3,0 4,-1 0,0 0,0 0,0 0,0 0,0 0,0 0,0 0,0 0,0 -1,-1 -4,-6 -4,-7 0,-1 2,-2 3,-2 1,-1 1,-1 2,-2 0,0 2,-1 2,-1l-5 0c0,1 0,0 0,1l-5 3c0,1 0,1 -1,1 0,0 0,0 0,0 0,0 1,-4 1,-4l0 -1 -3 0c0,1 -1,-1 0,0 0,1 0,1 0,2l-2 8c0,0 0,1 0,1 -1,1 -1,1 -1,2l4 0c-1,-2 -1,0 0,-4 0,-2 1,-1 2,-2 1,0 0,0 0,0z"/>
   <path class="fil0" d="M6 21l5 1c-1,-1 0,0 -1,-1 0,-1 1,-1 2,-3l6 -8c0,0 0,0 0,-1 0,0 0,0 1,0l-5 0c1,1 1,1 1,1 0,0 -1,1 -1,1l-4 6c0,-1 -1,-6 -1,-7 0,0 0,0 0,0l-1 0c0,2 2,7 1,8 0,-1 -1,-8 -1,-8 0,-1 0,-1 0,-1l-4 0c0,0 0,0 0,0 1,1 1,2 1,3l2 8c0,1 0,1 -1,1z"/>
   <path class="fil0" d="M34 10l0 0 2 9c1,3 0,1 0,3 0,0 1,0 2,0 0,0 1,0 2,-1 0,0 0,0 0,0 0,0 0,0 0,0l0 0c-1,-1 5,-8 5,-9l2 -2c0,-1 1,-1 1,-1l-4 0c0,1 0,0 0,1 0,0 -1,1 -1,1 -1,1 -3,5 -4,6 0,0 0,0 0,-1l-1 -5c0,-1 0,-1 1,-1 -1,0 -1,0 -1,0 -1,2 1,7 1,8 -1,-1 -2,-7 -2,-8 0,0 0,0 0,-1 1,0 1,0 1,0l-5 0c0,1 0,0 1,1z"/>
   <path class="fil1" d="M20 7l9 -3c5,-1 15,-3 20,0 4,2 1,6 0,7 4,-2 9,-12 -8,-10 -4,0 -8,1 -11,2 -2,1 -9,3 -10,4z"/>
   <path class="fil1" d="M33 22c-1,0 -2,1 -4,2 -4,1 -9,3 -14,3 -3,1 -12,1 -12,-4 -1,-2 0,-3 1,-4 -1,1 -5,6 -2,9 5,3 17,0 22,-2 3,-1 8,-3 9,-4z"/>
   <path class="fil2" d="M11 21c0,0 0,1 0,0l8 -11c0,0 0,0 0,0l0 0c-1,0 -1,0 -2,2l-4 6c-1,1 -2,3 -2,3z"/>
   <path class="fil2" d="M40 21l0 0 0 0c2,-2 3,-4 4,-6 1,-1 2,-2 2,-2l2 -3c1,0 0,0 1,0 -2,0 -2,0 -3,2l-6 9c0,0 0,0 0,0z"/>
   <path class="fil2" d="M30 21c0,0 0,0 0,0 0,0 0,0 0,0 0,0 0,0 0,0 1,0 -3,-5 -3,-6 1,-1 2,-2 3,-3 1,0 3,-2 4,-2 0,0 0,0 0,0l0 0c-2,0 -2,0 -4,2l-4 2c0,2 4,7 4,7z"/>
   <path class="fil2" d="M24 17c0,-1 0,-1 -1,-1 0,1 0,0 -1,1 0,0 0,0 -1,1l0 2c0,1 0,1 0,1 0,0 0,1 0,0 1,-2 0,-3 3,-4z"/>
   <path class="fil2" d="M22 14c1,0 1,0 1,-1 0,0 1,-3 1,-3 0,0 0,0 0,0 -1,0 -1,0 -1,1 0,1 0,2 -1,3z"/>
  </g>
 </g>
</svg>
